<?xml version="1.0" standalone="no"?>
<!DOCTYPE svg PUBLIC "-//W3C//DTD SVG 20010904//EN"
 "http://www.w3.org/TR/2001/REC-SVG-20010904/DTD/svg10.dtd">
<svg version="1.0" xmlns="http://www.w3.org/2000/svg"
 width="50.000000pt" height="50.000000pt" viewBox="0 0 50.000000 50.000000"
 preserveAspectRatio="xMidYMid meet">

<g transform="translate(0.000000,50.000000) scale(0.100000,-0.100000)"
fill="#12b488" stroke="none">
<path d="M184 417 c-3 -8 -4 -32 -2 -53 l3 -39 65 0 65 0 0 50 0 50 -63 3
c-47 2 -64 -1 -68 -11z"/>
<path d="M240 290 c0 -6 -31 -10 -74 -10 -82 0 -106 -13 -106 -56 0 -33 18
-30 22 4 3 27 4 27 81 30 l77 3 0 -31 c0 -16 5 -30 10 -30 6 0 10 14 10 30 l0
31 78 -3 c76 -3 77 -3 80 -30 4 -34 22 -37 22 -4 0 43 -24 56 -106 56 -43 0
-74 4 -74 10 0 6 -4 10 -10 10 -5 0 -10 -4 -10 -10z"/>
<path d="M4 167 c-3 -8 -4 -32 -2 -53 l3 -39 65 0 65 0 0 50 0 50 -63 3 c-47
2 -64 -1 -68 -11z"/>
<path d="M184 167 c-3 -8 -4 -32 -2 -53 l3 -39 65 0 65 0 0 50 0 50 -63 3
c-47 2 -64 -1 -68 -11z"/>
<path d="M364 167 c-3 -8 -4 -32 -2 -53 l3 -39 65 0 65 0 0 50 0 50 -63 3
c-47 2 -64 -1 -68 -11z"/>
</g>
</svg>
