<svg width="480" height="515" viewBox="0 0 480 515" fill="none" xmlns="http://www.w3.org/2000/svg">
<g clip-path="url(#clip0_1_30)">
<mask id="path-1-outside-1_1_30" maskUnits="userSpaceOnUse" x="-3" y="58.6367" width="486" height="397" fill="black">
<rect fill="white" x="-3" y="58.6367" width="486" height="397"/>
<path d="M184.219 64.2744C179.719 66.4873 176.812 69.706 174.844 74.6347C173.625 77.8535 173.438 86.1015 173.438 134.081V189.806L175.594 194.231C176.812 196.645 179.625 199.965 181.781 201.675L185.812 204.692L208.219 204.994L230.625 205.296V226.419V247.441H147.094C89.0625 247.441 63.0938 247.743 61.6875 248.548C57.75 250.861 57.1875 254.784 57.1875 283.049V309.704L34.875 310.006L12.6562 310.308L8.71875 313.225C6.1875 315.035 3.9375 317.852 2.34375 321.171L0 326.301V381.12V436.04L2.25 441.271C3.84375 444.892 5.8125 447.306 8.53125 449.317L12.5625 452.134L64.5938 452.436C99.9375 452.637 117.844 452.436 120.188 451.631C124.875 450.223 129.281 445.998 131.344 441.069C132.938 437.348 133.125 433.224 133.125 381.422C133.125 321.473 133.125 321.774 128.156 315.94C123.469 310.408 120.375 309.805 97.3125 309.805H75.9375V288.179V266.553H153.281H230.625V288.078V309.704L208.219 310.006L185.812 310.308L181.781 313.325C179.625 314.935 176.812 318.354 175.594 320.769L173.438 325.194V380.919C173.438 428.898 173.625 437.146 174.844 440.365C176.812 445.294 179.719 448.513 184.219 450.726C187.688 452.436 191.438 452.637 240 452.637C288.562 452.637 292.312 452.436 295.781 450.726C300.281 448.513 303.188 445.294 305.156 440.365C306.375 437.146 306.562 428.898 306.562 380.919V325.194L304.406 320.769C303.188 318.354 300.375 314.935 298.219 313.325L294.188 310.308L271.781 310.006L249.375 309.704V288.078V266.553H326.719H404.062V288.179V309.805H382.969C366 309.805 361.125 310.106 358.312 311.313C353.719 313.426 350.719 316.544 348.656 321.372C347.062 325.094 346.875 329.117 346.875 381.221C346.875 433.224 347.062 437.348 348.656 441.069C350.719 445.998 355.125 450.223 359.812 451.631C362.156 452.436 380.062 452.637 415.406 452.436L467.438 452.134L471.469 449.317C474.188 447.306 476.156 444.892 477.75 441.271L480 436.04V381.221C480 330.022 479.812 326.1 478.219 322.378C477.281 320.165 475.312 317.147 473.812 315.639C468.469 310.308 465.938 309.805 443.438 309.805H422.812V283.149C422.812 254.784 422.25 250.861 418.312 248.548C416.906 247.743 390.938 247.441 332.906 247.441H249.375V225.916V204.29L271.781 203.988L294.188 203.687L298.219 200.669C300.375 198.959 303.188 195.64 304.406 193.226L306.562 188.8V133.578C306.562 86.0009 306.375 77.8535 305.156 74.6347C303.188 69.706 300.281 66.4873 295.781 64.2744C292.312 62.5644 288.562 62.3633 240 62.3633C191.438 62.3633 187.688 62.5644 184.219 64.2744ZM287.812 133.88V185.279L245.438 184.676C222.094 184.273 200.531 183.77 197.625 183.469L192.188 182.865V132.673V82.4804H240H287.812V133.88ZM103.875 330.626L115.312 331.229V381.925V432.52H67.0312H18.75V381.221V329.922H55.5938C75.9375 329.922 97.6875 330.224 103.875 330.626ZM276.375 330.626L287.812 331.229V381.925V432.52H240H192.188V381.221V329.922H228.562C248.625 329.922 270.188 330.224 276.375 330.626ZM461.25 380.114V430.307L459.188 430.91C457.969 431.212 436.219 431.514 410.906 431.514H364.688V380.718V329.922H412.969H461.25V380.114Z"/>
</mask>
<path d="M184.219 64.2744C179.719 66.4873 176.812 69.706 174.844 74.6347C173.625 77.8535 173.438 86.1015 173.438 134.081V189.806L175.594 194.231C176.812 196.645 179.625 199.965 181.781 201.675L185.812 204.692L208.219 204.994L230.625 205.296V226.419V247.441H147.094C89.0625 247.441 63.0938 247.743 61.6875 248.548C57.75 250.861 57.1875 254.784 57.1875 283.049V309.704L34.875 310.006L12.6562 310.308L8.71875 313.225C6.1875 315.035 3.9375 317.852 2.34375 321.171L0 326.301V381.12V436.04L2.25 441.271C3.84375 444.892 5.8125 447.306 8.53125 449.317L12.5625 452.134L64.5938 452.436C99.9375 452.637 117.844 452.436 120.188 451.631C124.875 450.223 129.281 445.998 131.344 441.069C132.938 437.348 133.125 433.224 133.125 381.422C133.125 321.473 133.125 321.774 128.156 315.94C123.469 310.408 120.375 309.805 97.3125 309.805H75.9375V288.179V266.553H153.281H230.625V288.078V309.704L208.219 310.006L185.812 310.308L181.781 313.325C179.625 314.935 176.812 318.354 175.594 320.769L173.438 325.194V380.919C173.438 428.898 173.625 437.146 174.844 440.365C176.812 445.294 179.719 448.513 184.219 450.726C187.688 452.436 191.438 452.637 240 452.637C288.562 452.637 292.312 452.436 295.781 450.726C300.281 448.513 303.188 445.294 305.156 440.365C306.375 437.146 306.562 428.898 306.562 380.919V325.194L304.406 320.769C303.188 318.354 300.375 314.935 298.219 313.325L294.188 310.308L271.781 310.006L249.375 309.704V288.078V266.553H326.719H404.062V288.179V309.805H382.969C366 309.805 361.125 310.106 358.312 311.313C353.719 313.426 350.719 316.544 348.656 321.372C347.062 325.094 346.875 329.117 346.875 381.221C346.875 433.224 347.062 437.348 348.656 441.069C350.719 445.998 355.125 450.223 359.812 451.631C362.156 452.436 380.062 452.637 415.406 452.436L467.438 452.134L471.469 449.317C474.188 447.306 476.156 444.892 477.75 441.271L480 436.04V381.221C480 330.022 479.812 326.1 478.219 322.378C477.281 320.165 475.312 317.147 473.812 315.639C468.469 310.308 465.938 309.805 443.438 309.805H422.812V283.149C422.812 254.784 422.25 250.861 418.312 248.548C416.906 247.743 390.938 247.441 332.906 247.441H249.375V225.916V204.29L271.781 203.988L294.188 203.687L298.219 200.669C300.375 198.959 303.188 195.64 304.406 193.226L306.562 188.8V133.578C306.562 86.0009 306.375 77.8535 305.156 74.6347C303.188 69.706 300.281 66.4873 295.781 64.2744C292.312 62.5644 288.562 62.3633 240 62.3633C191.438 62.3633 187.688 62.5644 184.219 64.2744ZM287.812 133.88V185.279L245.438 184.676C222.094 184.273 200.531 183.77 197.625 183.469L192.188 182.865V132.673V82.4804H240H287.812V133.88ZM103.875 330.626L115.312 331.229V381.925V432.52H67.0312H18.75V381.221V329.922H55.5938C75.9375 329.922 97.6875 330.224 103.875 330.626ZM276.375 330.626L287.812 331.229V381.925V432.52H240H192.188V381.221V329.922H228.562C248.625 329.922 270.188 330.224 276.375 330.626ZM461.25 380.114V430.307L459.188 430.91C457.969 431.212 436.219 431.514 410.906 431.514H364.688V380.718V329.922H412.969H461.25V380.114Z" fill="#12B488"/>
<path d="M184.219 64.2744C179.719 66.4873 176.812 69.706 174.844 74.6347C173.625 77.8535 173.438 86.1015 173.438 134.081V189.806L175.594 194.231C176.812 196.645 179.625 199.965 181.781 201.675L185.812 204.692L208.219 204.994L230.625 205.296V226.419V247.441H147.094C89.0625 247.441 63.0938 247.743 61.6875 248.548C57.75 250.861 57.1875 254.784 57.1875 283.049V309.704L34.875 310.006L12.6562 310.308L8.71875 313.225C6.1875 315.035 3.9375 317.852 2.34375 321.171L0 326.301V381.12V436.04L2.25 441.271C3.84375 444.892 5.8125 447.306 8.53125 449.317L12.5625 452.134L64.5938 452.436C99.9375 452.637 117.844 452.436 120.188 451.631C124.875 450.223 129.281 445.998 131.344 441.069C132.938 437.348 133.125 433.224 133.125 381.422C133.125 321.473 133.125 321.774 128.156 315.94C123.469 310.408 120.375 309.805 97.3125 309.805H75.9375V288.179V266.553H153.281H230.625V288.078V309.704L208.219 310.006L185.812 310.308L181.781 313.325C179.625 314.935 176.812 318.354 175.594 320.769L173.438 325.194V380.919C173.438 428.898 173.625 437.146 174.844 440.365C176.812 445.294 179.719 448.513 184.219 450.726C187.688 452.436 191.438 452.637 240 452.637C288.562 452.637 292.312 452.436 295.781 450.726C300.281 448.513 303.188 445.294 305.156 440.365C306.375 437.146 306.562 428.898 306.562 380.919V325.194L304.406 320.769C303.188 318.354 300.375 314.935 298.219 313.325L294.188 310.308L271.781 310.006L249.375 309.704V288.078V266.553H326.719H404.062V288.179V309.805H382.969C366 309.805 361.125 310.106 358.312 311.313C353.719 313.426 350.719 316.544 348.656 321.372C347.062 325.094 346.875 329.117 346.875 381.221C346.875 433.224 347.062 437.348 348.656 441.069C350.719 445.998 355.125 450.223 359.812 451.631C362.156 452.436 380.062 452.637 415.406 452.436L467.438 452.134L471.469 449.317C474.188 447.306 476.156 444.892 477.75 441.271L480 436.04V381.221C480 330.022 479.812 326.1 478.219 322.378C477.281 320.165 475.312 317.147 473.812 315.639C468.469 310.308 465.938 309.805 443.438 309.805H422.812V283.149C422.812 254.784 422.25 250.861 418.312 248.548C416.906 247.743 390.938 247.441 332.906 247.441H249.375V225.916V204.29L271.781 203.988L294.188 203.687L298.219 200.669C300.375 198.959 303.188 195.64 304.406 193.226L306.562 188.8V133.578C306.562 86.0009 306.375 77.8535 305.156 74.6347C303.188 69.706 300.281 66.4873 295.781 64.2744C292.312 62.5644 288.562 62.3633 240 62.3633C191.438 62.3633 187.688 62.5644 184.219 64.2744ZM287.812 133.88V185.279L245.438 184.676C222.094 184.273 200.531 183.77 197.625 183.469L192.188 182.865V132.673V82.4804H240H287.812V133.88ZM103.875 330.626L115.312 331.229V381.925V432.52H67.0312H18.75V381.221V329.922H55.5938C75.9375 329.922 97.6875 330.224 103.875 330.626ZM276.375 330.626L287.812 331.229V381.925V432.52H240H192.188V381.221V329.922H228.562C248.625 329.922 270.188 330.224 276.375 330.626ZM461.25 380.114V430.307L459.188 430.91C457.969 431.212 436.219 431.514 410.906 431.514H364.688V380.718V329.922H412.969H461.25V380.114Z" stroke="#12B488" stroke-width="6" mask="url(#path-1-outside-1_1_30)"/>
</g>
<defs>
<clipPath id="clip0_1_30">
<rect width="480" height="515" fill="white"/>
</clipPath>
</defs>
</svg>
