<svg width="527" height="515" viewBox="0 0 527 515" fill="none" xmlns="http://www.w3.org/2000/svg">
<g clip-path="url(#clip0_1_30)">
<mask id="path-1-outside-1_1_30" maskUnits="userSpaceOnUse" x="-9" y="52.6367" width="545" height="409" fill="black">
<rect fill="white" x="-9" y="52.6367" width="545" height="409"/>
<path d="M202.257 64.2744C197.316 66.4873 194.125 69.706 191.964 74.6347C190.626 77.8535 190.42 86.1015 190.42 134.081V189.806L192.787 194.231C194.125 196.645 197.213 199.965 199.581 201.675L204.007 204.692L228.607 204.994L253.207 205.296V226.419V247.441H161.497C97.7832 247.441 69.2717 247.743 67.7277 248.548C63.4047 250.861 62.7871 254.784 62.7871 283.049V309.704L38.2898 310.006L13.8955 310.308L9.57246 313.225C6.79336 315.035 4.32305 317.852 2.57324 321.171L0 326.301V381.12V436.04L2.47031 441.271C4.22012 444.892 6.38164 447.306 9.3666 449.317L13.7926 452.134L70.9186 452.436C109.723 452.637 129.383 452.436 131.956 451.631C137.102 450.223 141.94 445.998 144.204 441.069C145.954 437.348 146.16 433.224 146.16 381.422C146.16 321.473 146.16 321.774 140.705 315.94C135.558 310.408 132.162 309.805 106.841 309.805H83.373V288.179V266.553H168.29H253.207V288.078V309.704L228.607 310.006L204.007 310.308L199.581 313.325C197.213 314.935 194.125 318.354 192.787 320.769L190.42 325.194V380.919C190.42 428.898 190.626 437.146 191.964 440.365C194.125 445.294 197.316 448.513 202.257 450.726C206.065 452.436 210.182 452.637 263.5 452.637C316.818 452.637 320.935 452.436 324.743 450.726C329.684 448.513 332.875 445.294 335.036 440.365C336.374 437.146 336.58 428.898 336.58 380.919V325.194L334.213 320.769C332.875 318.354 329.787 314.935 327.419 313.325L322.993 310.308L298.393 310.006L273.793 309.704V288.078V266.553H358.71H443.627V288.179V309.805H420.468C401.838 309.805 396.485 310.106 393.397 311.313C388.354 313.426 385.06 316.544 382.796 321.372C381.046 325.094 380.84 329.117 380.84 381.221C380.84 433.224 381.046 437.348 382.796 441.069C385.06 445.998 389.898 450.223 395.044 451.631C397.617 452.436 417.277 452.637 456.081 452.436L513.207 452.134L517.633 449.317C520.618 447.306 522.78 444.892 524.53 441.271L527 436.04V381.221C527 330.022 526.794 326.1 525.044 322.378C524.015 320.165 521.854 317.147 520.207 315.639C514.34 310.308 511.561 309.805 486.857 309.805H464.213V283.149C464.213 254.784 463.595 250.861 459.272 248.548C457.728 247.743 429.217 247.441 365.503 247.441H273.793V225.916V204.29L298.393 203.988L322.993 203.687L327.419 200.669C329.787 198.959 332.875 195.64 334.213 193.226L336.58 188.8V133.578C336.58 86.0009 336.374 77.8535 335.036 74.6347C332.875 69.706 329.684 66.4873 324.743 64.2744C320.935 62.5644 316.818 62.3633 263.5 62.3633C210.182 62.3633 206.065 62.5644 202.257 64.2744ZM315.994 133.88V185.279L269.47 184.676C243.84 184.273 220.167 183.77 216.976 183.469L211.006 182.865V132.673V82.4804H263.5H315.994V133.88ZM114.046 330.626L126.604 331.229V381.925V432.52H73.5947H20.5859V381.221V329.922H61.0373C83.373 329.922 107.253 330.224 114.046 330.626ZM303.437 330.626L315.994 331.229V381.925V432.52H263.5H211.006V381.221V329.922H250.943C272.97 329.922 296.643 330.224 303.437 330.626ZM506.414 380.114V430.307L504.15 430.91C502.812 431.212 478.932 431.514 451.141 431.514H400.396V380.718V329.922H453.405H506.414V380.114Z"/>
</mask>
<path d="M202.257 64.2744C197.316 66.4873 194.125 69.706 191.964 74.6347C190.626 77.8535 190.42 86.1015 190.42 134.081V189.806L192.787 194.231C194.125 196.645 197.213 199.965 199.581 201.675L204.007 204.692L228.607 204.994L253.207 205.296V226.419V247.441H161.497C97.7832 247.441 69.2717 247.743 67.7277 248.548C63.4047 250.861 62.7871 254.784 62.7871 283.049V309.704L38.2898 310.006L13.8955 310.308L9.57246 313.225C6.79336 315.035 4.32305 317.852 2.57324 321.171L0 326.301V381.12V436.04L2.47031 441.271C4.22012 444.892 6.38164 447.306 9.3666 449.317L13.7926 452.134L70.9186 452.436C109.723 452.637 129.383 452.436 131.956 451.631C137.102 450.223 141.94 445.998 144.204 441.069C145.954 437.348 146.16 433.224 146.16 381.422C146.16 321.473 146.16 321.774 140.705 315.94C135.558 310.408 132.162 309.805 106.841 309.805H83.373V288.179V266.553H168.29H253.207V288.078V309.704L228.607 310.006L204.007 310.308L199.581 313.325C197.213 314.935 194.125 318.354 192.787 320.769L190.42 325.194V380.919C190.42 428.898 190.626 437.146 191.964 440.365C194.125 445.294 197.316 448.513 202.257 450.726C206.065 452.436 210.182 452.637 263.5 452.637C316.818 452.637 320.935 452.436 324.743 450.726C329.684 448.513 332.875 445.294 335.036 440.365C336.374 437.146 336.58 428.898 336.58 380.919V325.194L334.213 320.769C332.875 318.354 329.787 314.935 327.419 313.325L322.993 310.308L298.393 310.006L273.793 309.704V288.078V266.553H358.71H443.627V288.179V309.805H420.468C401.838 309.805 396.485 310.106 393.397 311.313C388.354 313.426 385.06 316.544 382.796 321.372C381.046 325.094 380.84 329.117 380.84 381.221C380.84 433.224 381.046 437.348 382.796 441.069C385.06 445.998 389.898 450.223 395.044 451.631C397.617 452.436 417.277 452.637 456.081 452.436L513.207 452.134L517.633 449.317C520.618 447.306 522.78 444.892 524.53 441.271L527 436.04V381.221C527 330.022 526.794 326.1 525.044 322.378C524.015 320.165 521.854 317.147 520.207 315.639C514.34 310.308 511.561 309.805 486.857 309.805H464.213V283.149C464.213 254.784 463.595 250.861 459.272 248.548C457.728 247.743 429.217 247.441 365.503 247.441H273.793V225.916V204.29L298.393 203.988L322.993 203.687L327.419 200.669C329.787 198.959 332.875 195.64 334.213 193.226L336.58 188.8V133.578C336.58 86.0009 336.374 77.8535 335.036 74.6347C332.875 69.706 329.684 66.4873 324.743 64.2744C320.935 62.5644 316.818 62.3633 263.5 62.3633C210.182 62.3633 206.065 62.5644 202.257 64.2744ZM315.994 133.88V185.279L269.47 184.676C243.84 184.273 220.167 183.77 216.976 183.469L211.006 182.865V132.673V82.4804H263.5H315.994V133.88ZM114.046 330.626L126.604 331.229V381.925V432.52H73.5947H20.5859V381.221V329.922H61.0373C83.373 329.922 107.253 330.224 114.046 330.626ZM303.437 330.626L315.994 331.229V381.925V432.52H263.5H211.006V381.221V329.922H250.943C272.97 329.922 296.643 330.224 303.437 330.626ZM506.414 380.114V430.307L504.15 430.91C502.812 431.212 478.932 431.514 451.141 431.514H400.396V380.718V329.922H453.405H506.414V380.114Z" fill="#12B488"/>
<path d="M202.257 64.2744C197.316 66.4873 194.125 69.706 191.964 74.6347C190.626 77.8535 190.42 86.1015 190.42 134.081V189.806L192.787 194.231C194.125 196.645 197.213 199.965 199.581 201.675L204.007 204.692L228.607 204.994L253.207 205.296V226.419V247.441H161.497C97.7832 247.441 69.2717 247.743 67.7277 248.548C63.4047 250.861 62.7871 254.784 62.7871 283.049V309.704L38.2898 310.006L13.8955 310.308L9.57246 313.225C6.79336 315.035 4.32305 317.852 2.57324 321.171L0 326.301V381.12V436.04L2.47031 441.271C4.22012 444.892 6.38164 447.306 9.3666 449.317L13.7926 452.134L70.9186 452.436C109.723 452.637 129.383 452.436 131.956 451.631C137.102 450.223 141.94 445.998 144.204 441.069C145.954 437.348 146.16 433.224 146.16 381.422C146.16 321.473 146.16 321.774 140.705 315.94C135.558 310.408 132.162 309.805 106.841 309.805H83.373V288.179V266.553H168.29H253.207V288.078V309.704L228.607 310.006L204.007 310.308L199.581 313.325C197.213 314.935 194.125 318.354 192.787 320.769L190.42 325.194V380.919C190.42 428.898 190.626 437.146 191.964 440.365C194.125 445.294 197.316 448.513 202.257 450.726C206.065 452.436 210.182 452.637 263.5 452.637C316.818 452.637 320.935 452.436 324.743 450.726C329.684 448.513 332.875 445.294 335.036 440.365C336.374 437.146 336.58 428.898 336.58 380.919V325.194L334.213 320.769C332.875 318.354 329.787 314.935 327.419 313.325L322.993 310.308L298.393 310.006L273.793 309.704V288.078V266.553H358.71H443.627V288.179V309.805H420.468C401.838 309.805 396.485 310.106 393.397 311.313C388.354 313.426 385.06 316.544 382.796 321.372C381.046 325.094 380.84 329.117 380.84 381.221C380.84 433.224 381.046 437.348 382.796 441.069C385.06 445.998 389.898 450.223 395.044 451.631C397.617 452.436 417.277 452.637 456.081 452.436L513.207 452.134L517.633 449.317C520.618 447.306 522.78 444.892 524.53 441.271L527 436.04V381.221C527 330.022 526.794 326.1 525.044 322.378C524.015 320.165 521.854 317.147 520.207 315.639C514.34 310.308 511.561 309.805 486.857 309.805H464.213V283.149C464.213 254.784 463.595 250.861 459.272 248.548C457.728 247.743 429.217 247.441 365.503 247.441H273.793V225.916V204.29L298.393 203.988L322.993 203.687L327.419 200.669C329.787 198.959 332.875 195.64 334.213 193.226L336.58 188.8V133.578C336.58 86.0009 336.374 77.8535 335.036 74.6347C332.875 69.706 329.684 66.4873 324.743 64.2744C320.935 62.5644 316.818 62.3633 263.5 62.3633C210.182 62.3633 206.065 62.5644 202.257 64.2744ZM315.994 133.88V185.279L269.47 184.676C243.84 184.273 220.167 183.77 216.976 183.469L211.006 182.865V132.673V82.4804H263.5H315.994V133.88ZM114.046 330.626L126.604 331.229V381.925V432.52H73.5947H20.5859V381.221V329.922H61.0373C83.373 329.922 107.253 330.224 114.046 330.626ZM303.437 330.626L315.994 331.229V381.925V432.52H263.5H211.006V381.221V329.922H250.943C272.97 329.922 296.643 330.224 303.437 330.626ZM506.414 380.114V430.307L504.15 430.91C502.812 431.212 478.932 431.514 451.141 431.514H400.396V380.718V329.922H453.405H506.414V380.114Z" stroke="#12B488" stroke-width="18" mask="url(#path-1-outside-1_1_30)"/>
</g>
<defs>
<clipPath id="clip0_1_30">
<rect width="527" height="515" fill="white"/>
</clipPath>
</defs>
</svg>
