<?xml version="1.0" standalone="no"?>
<!DOCTYPE svg PUBLIC "-//W3C//DTD SVG 20010904//EN"
 "http://www.w3.org/TR/2001/REC-SVG-20010904/DTD/svg10.dtd">
<svg version="1.0" xmlns="http://www.w3.org/2000/svg"
 width="100.000000pt" height="100.000000pt" viewBox="0 0 100.000000 100.000000"
 preserveAspectRatio="xMidYMid meet">

<g transform="translate(0.000000,100.000000) scale(0.100000,-0.100000)"
fill="#000000" stroke="none">
<path d="M380 840 c-16 -16 -20 -33 -20 -90 0 -101 11 -110 140 -110 129 0
140 9 140 110 0 101 -11 110 -140 110 -87 0 -103 -3 -120 -20z"/>
<path d="M480 580 c0 -19 -7 -20 -140 -20 -86 0 -149 -5 -165 -12 -34 -15 -55
-56 -55 -108 0 -33 3 -40 20 -40 17 0 20 7 20 40 0 27 7 47 20 60 18 18 33 20
160 20 l140 0 0 -60 c0 -53 2 -60 20 -60 18 0 20 7 20 60 l0 60 140 0 c127 0
142 -2 160 -20 13 -13 20 -33 20 -60 0 -33 3 -40 20 -40 17 0 20 7 20 40 0 52
-21 93 -55 108 -16 7 -79 12 -165 12 -133 0 -140 1 -140 20 0 13 -7 20 -20 20
-13 0 -20 -7 -20 -20z"/>
<path d="M20 340 c-16 -16 -20 -33 -20 -90 0 -101 11 -110 140 -110 129 0 140
9 140 110 0 101 -11 110 -140 110 -87 0 -103 -3 -120 -20z"/>
<path d="M380 340 c-16 -16 -20 -33 -20 -90 0 -101 11 -110 140 -110 129 0
140 9 140 110 0 101 -11 110 -140 110 -87 0 -103 -3 -120 -20z"/>
<path d="M740 340 c-16 -16 -20 -33 -20 -90 0 -101 11 -110 140 -110 129 0
140 9 140 110 0 101 -11 110 -140 110 -87 0 -103 -3 -120 -20z"/>
</g>
</svg>
